<svg xmlns="http://www.w3.org/2000/svg" width="17.747" height="18.496" viewBox="0 0 17.747 18.496">
    <path d="M16.891 9.487a.542.542 0 0 1 0-.479l.69-1.406a1.606 1.606 0 0 0-.693-2.132l-1.387-.741a.542.542 0 0 1-.282-.388l-.271-1.547a1.606 1.606 0 0 0-1.814-1.318l-1.555.22a.542.542 0 0 1-.456-.148L9.994.456a1.606 1.606 0 0 0-2.242 0L6.624 1.548a.542.542 0 0 1-.456.148l-1.555-.22a1.605 1.605 0 0 0-1.814 1.318l-.271 1.547a.542.542 0 0 1-.282.388l-1.388.736a1.606 1.606 0 0 0-.692 2.137l.69 1.411a.542.542 0 0 1 0 .479l-.69 1.411a1.606 1.606 0 0 0 .693 2.132l1.388.736a.542.542 0 0 1 .282.388l.271 1.547a1.6 1.6 0 0 0 1.583 1.334 1.649 1.649 0 0 0 .231-.016l1.555-.22a.542.542 0 0 1 .456.148l1.129 1.092a1.606 1.606 0 0 0 2.242 0l1.129-1.092a.543.543 0 0 1 .456-.148l1.555.22a1.605 1.605 0 0 0 1.812-1.322l.271-1.547a.542.542 0 0 1 .282-.388l1.388-.736a1.606 1.606 0 0 0 .692-2.129zm-.5 2.6l-1.388.736a1.6 1.6 0 0 0-.832 1.146l-.271 1.547a.543.543 0 0 1-.614.446l-1.555-.22a1.6 1.6 0 0 0-1.347.438l-1.129 1.092a.543.543 0 0 1-.758 0L7.368 16.18a1.6 1.6 0 0 0-1.117-.454 1.637 1.637 0 0 0-.23.016l-1.555.22a.543.543 0 0 1-.614-.446l-.271-1.547a1.6 1.6 0 0 0-.832-1.146l-1.388-.736a.543.543 0 0 1-.234-.721l.69-1.411a1.6 1.6 0 0 0 0-1.416l-.69-1.411a.543.543 0 0 1 .234-.721l1.388-.736a1.6 1.6 0 0 0 .832-1.146l.271-1.547a.543.543 0 0 1 .614-.446l1.555.22a1.6 1.6 0 0 0 1.347-.438l1.129-1.092a.543.543 0 0 1 .758 0l1.129 1.092a1.6 1.6 0 0 0 1.347.438l1.555-.22a.543.543 0 0 1 .614.446l.271 1.547a1.6 1.6 0 0 0 .832 1.146l1.388.736a.543.543 0 0 1 .234.721l-.69 1.411a1.6 1.6 0 0 0 0 1.416l.69 1.411a.543.543 0 0 1-.237.722z" data-name="Path 275"/>
    <path d="M12.77 5.35a.533.533 0 0 0-.754 0l-7.04 7.04a.533.533 0 1 0 .754.754l7.04-7.04a.533.533 0 0 0 0-.754z" data-name="Path 276"/>
    <path d="M6.74 4.448a1.956 1.956 0 1 0 1.956 1.956A1.958 1.958 0 0 0 6.74 4.448zm0 2.845a.889.889 0 1 1 .889-.889.89.89 0 0 1-.889.889z" data-name="Path 277"/>
    <path d="M11.007 10.137a1.956 1.956 0 1 0 1.956 1.956 1.958 1.958 0 0 0-1.956-1.956zm0 2.845a.889.889 0 1 1 .889-.889.89.89 0 0 1-.889.889z" data-name="Path 278"/>
</svg>
