<svg xmlns="http://www.w3.org/2000/svg" width="20.828" height="20.706" viewBox="0 0 20.828 20.706"><defs><style>.a{fill:#ff0a00;stroke:#ff1400;stroke-width:0.25px;}</style></defs><g transform="translate(0.162 -0.336)"><path class="a" d="M69.18,14.444l1.206-.076h.006a2.841,2.841,0,0,0,2.117-1.236l.954-1.4a5.646,5.646,0,0,0,.905-4.143,1.274,1.274,0,0,0-1.2-1.06,5.645,5.645,0,0,0-4,1.4L67.894,9.04a2.841,2.841,0,0,0-.973,2.25s0,0,0,.006L66.99,12.5a1.7,1.7,0,0,1-.472,1.273l-9.96,10.232a1.447,1.447,0,0,0-.388,1.074A1.664,1.664,0,0,0,57.856,26.7q.066,0,.132-.005a1.447,1.447,0,0,0,1.021-.515l8.962-11.112A1.7,1.7,0,0,1,69.18,14.444Zm-1.686.235L58.533,25.79a.838.838,0,0,1-.593.29,1.051,1.051,0,0,1-1.154-1.023A.836.836,0,0,1,57,24.435L66.96,14.2a2.316,2.316,0,0,0,.645-1.736l-.069-1.2A2.228,2.228,0,0,1,68.3,9.5l1.275-1.115a5.036,5.036,0,0,1,3.57-1.244.659.659,0,0,1,.618.548,5.033,5.033,0,0,1-.807,3.693L72,12.784a2.228,2.228,0,0,1-1.657.969l-1.2.076A2.317,2.317,0,0,0,67.494,14.679Zm0,0" transform="translate(-53.916 -5.782)"/><path class="a" d="M298.036,293.063l-6.678-6.082a.308.308,0,1,0-.414.455l6.676,6.081a.838.838,0,0,1,.254.609,1.051,1.051,0,0,1-1.091,1.091.837.837,0,0,1-.608-.252l-5.951-6.533a.308.308,0,1,0-.455.415l5.952,6.535a1.447,1.447,0,0,0,1.049.451h.032a1.666,1.666,0,0,0,1.686-1.719A1.449,1.449,0,0,0,298.036,293.063Zm0,0" transform="translate(-278.071 -274.915)"/><path class="a" d="M3.715,8.6a2.85,2.85,0,0,0,1.864.754h.006l1.209,0a1.7,1.7,0,0,1,1.242.548l.532.584a.308.308,0,1,0,.455-.415L8.49,9.493A2.316,2.316,0,0,0,6.8,8.745l-1.205,0a2.236,2.236,0,0,1-1.445-.578L.643,4A.106.106,0,0,1,.8,3.856L3.988,7.044a.809.809,0,0,0,1.143,0l.375-.375h0L6.171,6h0l.375-.375a.809.809,0,0,0,0-1.143L3.357,1.3A.106.106,0,0,1,3.5,1.141l4.164,3.5a2.235,2.235,0,0,1,.578,1.444l0,1.206A2.318,2.318,0,0,0,9,8.989l.571.52a.308.308,0,1,0,.415-.455l-.57-.519a1.7,1.7,0,0,1-.549-1.243l0-1.209s0,0,0-.007a2.85,2.85,0,0,0-.754-1.864.308.308,0,0,0-.028-.027L3.9.67a.722.722,0,0,0-.975,1.063L6.111,4.921a.193.193,0,0,1,0,.273l-.157.157L2.4,1.8a.308.308,0,0,0-.435.435L5.518,5.787l-.23.23L1.734,2.463A.308.308,0,0,0,1.3,2.9L4.853,6.452,4.7,6.609a.193.193,0,0,1-.273,0L1.234,3.421A.722.722,0,0,0,.171,4.4l3.516,4.18A.287.287,0,0,0,3.715,8.6Zm0,0" transform="translate(0 0)"/></g></svg>