<svg xmlns="http://www.w3.org/2000/svg" xmlns:xlink="http://www.w3.org/1999/xlink" width="23" height="23" viewBox="0 0 23 23"><defs><style>.a,.c{fill:red;}.a{stroke:#707070;}.b{clip-path:url(#a);}</style><clipPath id="a"><rect class="a" width="23" height="23" transform="translate(43 684)"/></clipPath></defs><g class="b" transform="translate(-43 -684)"><g transform="translate(43 684)"><path class="c" d="M18.912,9.193v-1.6l1.63,1.164.783-1.1L11.5.642,1.675,7.66l.783,1.1,1.63-1.164v1.6L0,11.888v10.47H23V11.888Zm2.74,3.421v6.4a3.407,3.407,0,0,0-2.066-.7,3.372,3.372,0,0,0-.674.068V10.807ZM4.088,10.807v7.576a3.372,3.372,0,0,0-.674-.068,3.407,3.407,0,0,0-2.066.7v-6.4Zm-2.617,10.2a2.1,2.1,0,0,1,1.944-1.348A2.025,2.025,0,0,1,5.32,21.011Zm8.008,0V16.968h4.043v4.043Zm5.391,0V15.62H8.131v5.391H6.715a3.375,3.375,0,0,0-1.28-2.02V6.63L11.5,2.3,17.564,6.63V18.991a3.375,3.375,0,0,0-1.28,2.02Zm2.811,0a2.025,2.025,0,0,1,1.906-1.348,2.1,2.1,0,0,1,1.944,1.348Z"/><path class="c" d="M6.783,10.229h4.043v1.348H6.783Z"/><path class="c" d="M6.783,12.925h4.043v1.348H6.783Z"/><path class="c" d="M12.174,12.925h4.043v1.348H12.174Z"/><path class="c" d="M12.174,10.229h4.043v1.348H12.174Z"/><path class="c" d="M13.521,4.839H9.479V8.882h4.043Zm-1.348,2.7H10.826V6.187h1.348Z"/></g></g></svg>