<svg xmlns="http://www.w3.org/2000/svg" xmlns:xlink="http://www.w3.org/1999/xlink" width="23" height="23" viewBox="0 0 23 23"><defs><style>.a{fill:#fff;stroke:#707070;}.b{clip-path:url(#a);}.c{fill:#ff1b00;}</style><clipPath id="a"><rect class="a" width="23" height="23" transform="translate(43 532)"/></clipPath></defs><g class="b" transform="translate(-43 -532)"><g transform="translate(43 532)"><path class="c" d="M18.145,0V1.408h1.588l-3.1,2.938a6.032,6.032,0,0,0-9.6,1.3c-.088,0-.177-.006-.266-.006a6.038,6.038,0,0,0-.7,12.035V19.55H3.953v1.408H6.061V23H7.469V20.958h2.2V19.55h-2.2V17.678A6.05,6.05,0,0,0,12.052,14.6c.088,0,.177.006.266.006A6.036,6.036,0,0,0,17.5,5.467l3.366-3.191V4.025h1.408V0ZM6.765,16.312a4.63,4.63,0,0,1-.3-9.25,6.042,6.042,0,0,0,4.085,7.278A4.628,4.628,0,0,1,6.765,16.312Zm4.422-3.257A4.632,4.632,0,0,1,7.9,7.191a4.632,4.632,0,0,1,3.292,5.863Zm1.427.13A6.042,6.042,0,0,0,8.529,5.906a4.629,4.629,0,1,1,4.085,7.278Z"/></g></g></svg>