<svg xmlns="http://www.w3.org/2000/svg" xmlns:xlink="http://www.w3.org/1999/xlink" width="23" height="23" viewBox="0 0 23 23"><defs><style>.a{fill:#fff;stroke:#707070;}.b{clip-path:url(#a);}.c{fill:#ff2a00;}</style><clipPath id="a"><rect class="a" width="23" height="23" transform="translate(43 400)"/></clipPath></defs><g class="b" transform="translate(-43 -400)"><g transform="translate(43 401.917)"><path class="c" d="M20.365,19.167H2.635A2.638,2.638,0,0,1,0,16.531V4.552A2.638,2.638,0,0,1,2.635,1.917h5.75a.719.719,0,0,1,0,1.437H2.635a1.2,1.2,0,0,0-1.2,1.2V16.531a1.2,1.2,0,0,0,1.2,1.2H20.365a1.2,1.2,0,0,0,1.2-1.2V4.552a1.2,1.2,0,0,0-1.2-1.2h-5.75a.719.719,0,0,1,0-1.437h5.75A2.638,2.638,0,0,1,23,4.552V16.531A2.638,2.638,0,0,1,20.365,19.167Zm0,0"/><path class="c" d="M13.656,5.271H9.344A1.679,1.679,0,0,1,7.667,3.594V1.677A1.679,1.679,0,0,1,9.344,0h4.313a1.679,1.679,0,0,1,1.677,1.677V3.594A1.679,1.679,0,0,1,13.656,5.271ZM9.344,1.438a.24.24,0,0,0-.24.24V3.594a.239.239,0,0,0,.24.24h4.313a.239.239,0,0,0,.24-.24V1.677a.24.24,0,0,0-.24-.24Zm0,0"/><path class="c" d="M7.188,11.5a2.4,2.4,0,1,1,2.4-2.4A2.4,2.4,0,0,1,7.188,11.5Zm0-3.354a.958.958,0,1,0,.958.958A.96.96,0,0,0,7.188,8.146Zm0,0"/><path class="c" d="M10.781,16.292a.719.719,0,0,1-.719-.719v-.479a1.2,1.2,0,0,0-1.2-1.2H5.51a1.2,1.2,0,0,0-1.2,1.2v.479a.719.719,0,0,1-1.437,0v-.479A2.638,2.638,0,0,1,5.51,12.458H8.865A2.638,2.638,0,0,1,11.5,15.094v.479A.719.719,0,0,1,10.781,16.292Zm0,0"/><path class="c" d="M19.406,8.625H14.135a.719.719,0,0,1,0-1.437h5.271a.719.719,0,0,1,0,1.438Zm0,0"/><path class="c" d="M19.406,12.458H14.135a.719.719,0,0,1,0-1.437h5.271a.719.719,0,0,1,0,1.438Zm0,0"/><path class="c" d="M19.406,16.292H14.135a.719.719,0,0,1,0-1.437h5.271a.719.719,0,0,1,0,1.438Zm0,0"/></g></g></svg>