<svg xmlns="http://www.w3.org/2000/svg" xmlns:xlink="http://www.w3.org/1999/xlink" width="23" height="23" viewBox="0 0 23 23"><defs><style>.a,.c{fill:red;}.a{stroke:#707070;}.b{clip-path:url(#a);}</style><clipPath id="a"><rect class="a" width="23" height="23" transform="translate(43 787)"/></clipPath></defs><g class="b" transform="translate(-43 -787)"><path class="c" d="M20.125,21.516H18.641V3.339A.742.742,0,0,0,17.9,2.6H12.335V.742A.742.742,0,0,0,11.593,0H6.446A.742.742,0,0,0,5.7.742V2.6H5.1a.742.742,0,0,0-.742.742V21.516H2.875a.742.742,0,0,0,0,1.484h17.25a.742.742,0,1,0,0-1.484ZM7.188,1.484h3.663V2.6H7.188Zm2.829,20.032V18.363h2.968v3.153Zm4.452,0V18.363h.325a.742.742,0,0,0,0-1.484H8.208a.742.742,0,1,0,0,1.484h.325v3.153H5.843V4.081H17.157V21.516ZM10.433,6.26A.742.742,0,0,1,9.692,7H8.857a.742.742,0,1,1,0-1.484h.835A.742.742,0,0,1,10.433,6.26Zm4.405,0A.742.742,0,0,1,14.1,7h-.835a.742.742,0,1,1,0-1.484H14.1A.742.742,0,0,1,14.839,6.26ZM10.433,9.042a.742.742,0,0,1-.742.742H8.857a.742.742,0,1,1,0-1.484h.835A.742.742,0,0,1,10.433,9.042Zm4.405,0a.742.742,0,0,1-.742.742h-.835a.742.742,0,1,1,0-1.484H14.1A.742.742,0,0,1,14.839,9.042Zm-4.405,2.782a.742.742,0,0,1-.742.742H8.857a.742.742,0,1,1,0-1.484h.835A.742.742,0,0,1,10.433,11.825Zm4.405,0a.742.742,0,0,1-.742.742h-.835a.742.742,0,1,1,0-1.484H14.1A.742.742,0,0,1,14.839,11.825Zm-4.405,2.782a.742.742,0,0,1-.742.742H8.857a.742.742,0,1,1,0-1.484h.835A.742.742,0,0,1,10.433,14.607Zm4.405,0a.742.742,0,0,1-.742.742h-.835a.742.742,0,1,1,0-1.484H14.1A.742.742,0,0,1,14.839,14.607Z" transform="translate(43 787)"/></g></svg>