<svg xmlns="http://www.w3.org/2000/svg" xmlns:xlink="http://www.w3.org/1999/xlink" width="23" height="23" viewBox="0 0 23 23"><defs><style>.a{fill:#fff;stroke:#707070;}.b{clip-path:url(#a);}.c{fill:none;stroke:#ff2600;stroke-linecap:round;stroke-linejoin:round;stroke-width:1.5px;}</style><clipPath id="a"><rect class="a" width="23" height="23" transform="translate(43 446)"/></clipPath></defs><g class="b" transform="translate(-43 -446)"><path class="c" d="M23.073,17.745v3.146a2.1,2.1,0,0,1-2.286,2.1,20.755,20.755,0,0,1-9.051-3.22,20.451,20.451,0,0,1-6.293-6.293,20.755,20.755,0,0,1-3.22-9.093A2.1,2.1,0,0,1,4.31,2.1H7.457a2.1,2.1,0,0,1,2.1,1.8,13.466,13.466,0,0,0,.734,2.947,2.1,2.1,0,0,1-.472,2.213L8.485,10.393a16.78,16.78,0,0,0,6.293,6.293l1.332-1.332a2.1,2.1,0,0,1,2.213-.472,13.466,13.466,0,0,0,2.947.734,2.1,2.1,0,0,1,1.8,2.129Z" transform="translate(41.856 444.951)"/></g></svg>