<svg xmlns="http://www.w3.org/2000/svg" width="18.569" height="17.791" viewBox="0 0 18.569 17.791">
    <path d="M18.166 8.063a1.332 1.332 0 0 0-.738-2.272l-4.5-.653a.587.587 0 0 1-.442-.322L10.476.742a1.332 1.332 0 0 0-2.388 0L6.08 4.816a.588.588 0 0 1-.443.322l-4.5.654A1.332 1.332 0 0 0 .4 8.063l3.253 3.171a.589.589 0 0 1 .17.521l-.768 4.478a1.332 1.332 0 0 0 1.932 1.4l4.021-2.114a.589.589 0 0 1 .547 0l4.021 2.114a1.332 1.332 0 0 0 1.932-1.4l-.764-4.48a.588.588 0 0 1 .17-.521zm-4.155 3.818l.768 4.478a.588.588 0 0 1-.853.62L9.9 14.864a1.332 1.332 0 0 0-1.24 0l-4.016 2.114a.588.588 0 0 1-.853-.62l.768-4.478a1.332 1.332 0 0 0-.383-1.179L.922 7.53a.588.588 0 0 1 .326-1l4.5-.653a1.33 1.33 0 0 0 1-.728l2.01-4.074a.588.588 0 0 1 1.055 0l2.01 4.074a1.329 1.329 0 0 0 1 .728l4.5.653a.588.588 0 0 1 .326 1l-3.253 3.171a1.331 1.331 0 0 0-.385 1.179z"/>
</svg>
