<svg xmlns="http://www.w3.org/2000/svg" width="14.686" height="21.402" viewBox="0 0 14.686 21.402">
    <path d="M11.909 5.558a.627.627 0 0 0-1.164.324 1.388 1.388 0 0 1-2.776 0V.627A.627.627 0 0 0 6.9.184a30.674 30.674 0 0 0-3.437 4.293 24.361 24.361 0 0 0-2.369 4.417A14 14 0 0 0 0 14.059a7.343 7.343 0 1 0 14.686 0 16.754 16.754 0 0 0-2.777-8.501zm-4.566 14.59a6.1 6.1 0 0 1-6.089-6.089c0-3.3 1.761-6.646 3.239-8.866a31.5 31.5 0 0 1 2.223-2.94v3.629a2.641 2.641 0 0 0 4.8 1.522 14.4 14.4 0 0 1 1.916 6.655 6.1 6.1 0 0 1-6.089 6.089zm0 0" data-name="Path 273"/>
    <path d="M10.9 10.583H8.214a.627.627 0 0 0 0 1.254h1.173l-2.679 2.678-1.456-1.456a.627.627 0 0 0-.887 0L2.94 14.484a.627.627 0 1 0 .887.887l.982-.981 1.456 1.456a.627.627 0 0 0 .887 0l3.122-3.122v1.173a.627.627 0 0 0 1.254 0v-2.686a.627.627 0 0 0-.628-.628zm0 0" data-name="Path 274"/>
</svg>
