<svg  width="40px" height="40px" viewBox="-35 0 512 512.00001" xmlns="http://www.w3.org/2000/svg"><path d="m377.789062 490.660156h-149.382812v-388.460937h163.386719v324.605469l-14.003907 21.339843zm0 0" fill="#eb8d00"/><path d="m254.238281 42.710938h-25.832031l-21.339844 170.609374 21.34375 272.292969 25.828125-3.625zm0 0" fill="#fdae02"/><path d="m24.359375 0v42.710938h-24.359375v439.277343l137.710938 16.347657 90.699218-12.722657v-485.613281zm0 0" fill="#fdcb02"/><g fill="#f3fffb"><path d="m74.691406 102.535156h30.007813v42.679688h-30.007813zm0 0"/><path d="m149.382812 102.535156h30.007813v42.679688h-30.007813zm0 0"/><path d="m74.691406 187.894531h30.007813v42.679688h-30.007813zm0 0"/><path d="m149.382812 187.894531h30.007813v42.679688h-30.007813zm0 0"/><path d="m74.691406 273.257812h30.007813v42.679688h-30.007813zm0 0"/><path d="m149.382812 273.257812h30.007813v42.679688h-30.007813zm0 0"/><path d="m74.691406 358.617188h30.007813v42.679687h-30.007813zm0 0"/><path d="m149.382812 358.617188h30.007813v42.679687h-30.007813zm0 0"/></g><path d="m292.761719 187.894531h30.007812v42.679688h-30.007812zm0 0" fill="#ffd27b"/><path d="m292.761719 273.257812h30.007812v42.679688h-30.007812zm0 0" fill="#ffd27b"/><path d="m361.871094 421.636719h30.011718v74.691406h-30.011718zm0 0" fill="#8f4d24"/><path d="m376.878906 457.316406c-36.128906 0-65.523437-29.394531-65.523437-65.523437 0-36.128907 29.394531-65.519531 65.523437-65.519531s65.519532 29.390624 65.519532 65.519531c0 36.128906-29.390626 65.523437-65.519532 65.523437zm0 0" fill="#a8d32a"/><path d="m441.8125 481.988281h-213.40625l-10.667969 19.507813 10.667969 10.503906h213.40625zm0 0" fill="#8d9ca8"/><path d="m0 481.988281h228.40625v30.011719h-228.40625zm0 0" fill="#aab8c7"/></svg>
