<svg id="Layer_2" enable-background="new 0 0 64 64" height="512" viewBox="0 0 64 64" width="512" xmlns="http://www.w3.org/2000/svg"><path d="m62 30h-8.095c-.951-10.553-9.352-18.954-19.905-19.905v-8.095h-4v8.095c-10.553.951-18.954 9.352-19.905 19.905h-8.095v4h8.095c.951 10.553 9.352 18.954 19.905 19.905v8.095h4v-8.095c10.553-.951 18.954-9.352 19.905-19.905h8.095z" fill="#6e83b7"/><circle cx="32" cy="32" fill="#80d6fb" r="18"/><path d="m40 29c0 4.418-8 14-8 14s-8-9.582-8-14 3.582-8 8-8 8 3.582 8 8z" fill="#ffb0aa"/><circle cx="32" cy="29" fill="#edeff1" r="5"/></svg>