<?xml version="1.0"?>
<svg xmlns="http://www.w3.org/2000/svg" height="512px" viewBox="0 0 469.33333 469.33333" width="512px"><g><path d="m469.332031 234.667969c0 129.601562-105.0625 234.664062-234.664062 234.664062-129.605469 0-234.667969-105.0625-234.667969-234.664062 0-129.605469 105.0625-234.667969 234.667969-234.667969 129.601562 0 234.664062 105.0625 234.664062 234.667969zm0 0" fill="#ffc107" data-original="#FFC107" class="active-path" style="fill:#868686" data-old_color="#ffc107"/><g fill="#fafafa"><path d="m282.644531 341.332031c-3.113281 0-6.230469-.894531-9-2.773437l-117.335937-80c-5.78125-3.964844-8.339844-11.21875-6.269532-17.941406 2.066407-6.71875 8.277344-11.285157 15.292969-11.285157h48c20.589844 0 37.335938-16.746093 37.335938-37.332031s-16.746094-37.332031-37.335938-37.332031h-48c-8.832031 0-16-7.167969-16-16s7.167969-16 16-16h48c38.230469 0 69.335938 31.101562 69.335938 69.332031 0 36.96875-29.101563 67.285156-65.601563 69.246094l74.625 50.882812c7.296875 4.96875 9.171875 14.933594 4.203125 22.226563-3.09375 4.523437-8.128906 6.976562-13.25 6.976562zm0 0" data-original="#FAFAFA" class="" style="fill:#FAFAFA" data-old_color="#FAFAFA"/><path d="m304 154.667969h-138.667969c-8.832031 0-16-7.167969-16-16s7.167969-16 16-16h138.667969c8.832031 0 16 7.167969 16 16s-7.167969 16-16 16zm0 0" data-original="#FAFAFA" class="" style="fill:#FAFAFA" data-old_color="#FAFAFA"/><path d="m304 213.332031h-138.667969c-8.832031 0-16-7.167969-16-16s7.167969-16 16-16h138.667969c8.832031 0 16 7.167969 16 16s-7.167969 16-16 16zm0 0" data-original="#FAFAFA" class="" style="fill:#FAFAFA" data-old_color="#FAFAFA"/></g></g> </svg>
